<?xml version="1.0" encoding="UTF-8" standalone="no"?>

<svg
   width="25.4mm"
   height="25.4mm"
   viewBox="0 0 25.4 25.4"
   version="1.1"
   id="svg5"
   xmlns="http://www.w3.org/2000/svg">
  <defs
     id="defs2">
    <linearGradient
       id="linearGradient9072">
      <stop
         style="stop-color:#3097ff;stop-opacity:1"
         offset="0"
         id="stop9068" />
      <stop
         style="stop-color:#65ffb6;stop-opacity:1"
         offset="1"
         id="stop9070" />
    </linearGradient>
    <linearGradient
       xlink:href="#linearGradient9072"
       id="linearGradient9074"
       x1="191.97398"
       y1="87.67691"
       x2="166.57399"
       y2="113.07691"
       gradientUnits="userSpaceOnUse" />
  </defs>
  <g
     id="layer1"
     transform="translate(-166.57399,-87.67691)">
    <path
       style="fill:url(#linearGradient9072);fill-opacity:1;stroke-width:0.0258034"
       d="m 186.23043,112.32765 c -0.63797,-0.089 -1.09475,-0.25721 -1.22231,-0.44997 -0.0621,-0.0939 -0.079,-0.10364 -0.17789,-0.10367 -0.26705,-8e-5 -0.77415,-0.13056 -1.04922,-0.26995 -0.29558,-0.14977 -0.35013,-0.42844 -0.10386,-0.53045 0.0819,-0.0339 0.0905,-0.0618 0.0505,-0.16678 -0.0334,-0.0879 -0.008,-0.18722 0.14251,-0.54938 0.11873,-0.28634 0.11999,-0.29231 0.0794,-0.37804 -0.17086,-0.36006 0.2736,-0.70435 1.03787,-0.80396 0.13574,-0.0177 0.13808,-0.0194 0.19681,-0.15233 0.0327,-0.0739 0.11243,-0.18554 0.17719,-0.24802 0.11146,-0.10751 0.12801,-0.14321 0.30977,-0.66836 0.10563,-0.30512 0.20053,-0.58379 0.21089,-0.61927 0.0103,-0.0354 0.12784,-0.38221 0.26104,-0.77049 0.13323,-0.3883 0.24222,-0.71051 0.24222,-0.71605 0,-0.006 -0.0688,-0.0101 -0.15294,-0.0101 -0.2086,0 -0.53163,-0.0472 -0.65151,-0.0951 -0.12636,-0.0505 -0.22768,-0.17024 -0.22768,-0.26895 0,-0.0419 0.0299,-0.13511 0.0662,-0.20701 l 0.0662,-0.13072 -0.0985,0.0153 c -0.0543,0.009 -0.15403,0.0175 -0.22194,0.0203 -0.12293,0.005 -0.19243,0.0467 -0.16145,0.0968 0.009,0.0146 0.003,0.0759 -0.0134,0.1366 -0.0782,0.29087 -0.48478,0.45204 -0.9661,0.38295 -0.0993,-0.0143 -0.22706,-0.0325 -0.28384,-0.0408 l -0.10321,-0.0148 -0.18062,0.26457 c -0.0993,0.14551 -0.3461,0.50149 -0.54833,0.79107 -0.20223,0.28959 -0.36769,0.53216 -0.36769,0.53906 0,0.007 -0.16412,0.24649 -0.36469,0.53244 -0.20058,0.28595 -0.36954,0.53733 -0.37546,0.55861 -0.008,0.0271 0.0283,0.0525 0.11813,0.0844 0.0708,0.0252 0.16436,0.0812 0.20774,0.12455 0.1385,0.13852 0.0928,0.34001 -0.10891,0.47976 l -0.0985,0.0683 0.1209,0.11823 c 0.14246,0.13929 0.24217,0.33572 0.24252,0.47777 3e-4,0.112 -0.0765,0.29226 -0.15448,0.36285 -0.0497,0.045 -0.0497,0.046 6.4e-4,0.11011 0.0996,0.12663 0.043,0.3179 -0.13401,0.45274 -0.0473,0.0361 -0.17895,0.0978 -0.29249,0.13715 -0.18158,0.063 -0.24527,0.0717 -0.52897,0.0728 -0.24906,9.6e-4 -0.35353,-0.01 -0.45857,-0.046 -0.16918,-0.059 -0.31553,-0.19098 -0.31553,-0.28462 0,-0.0831 -0.007,-0.0836 -0.0885,-0.008 -0.17097,0.15845 -0.80708,0.24932 -1.40643,0.20092 -0.50773,-0.0411 -1.04482,-0.13524 -1.20147,-0.21081 -0.0284,-0.0137 -0.12034,-0.0481 -0.20434,-0.0767 -0.1891,-0.064 -0.38526,-0.18772 -0.45651,-0.28777 -0.0799,-0.11219 -0.0717,-0.24916 0.0196,-0.33103 0.0716,-0.0642 0.0736,-0.0728 0.0757,-0.33633 0.004,-0.42984 0.0917,-0.70096 0.29382,-0.90366 0.17382,-0.17427 0.35788,-0.25699 0.5718,-0.25699 0.0956,0 0.20656,0.0125 0.24652,0.028 0.0977,0.0376 1.48124,0.41066 1.52319,0.41066 0.0182,0 0.0331,-0.0215 0.0331,-0.048 0,-0.0554 0.10645,-0.2204 0.18884,-0.29274 0.031,-0.0273 0.12017,-0.0806 0.19822,-0.11884 0.12868,-0.0629 0.17035,-0.0695 0.44692,-0.0712 l 0.305,-0.002 0.31428,-0.47864 c 0.17286,-0.26324 0.59876,-0.91067 0.94646,-1.43871 0.34771,-0.52806 0.63616,-0.97108 0.641,-0.9845 0.005,-0.0134 -0.0404,-0.0734 -0.10051,-0.13342 -0.12061,-0.1202 -0.29237,-0.34315 -0.31557,-0.40958 -0.0101,-0.0291 0.0585,-0.12525 0.21556,-0.30221 0.12673,-0.14281 0.23041,-0.26757 0.23041,-0.27722 0,-0.01 -0.0504,-0.0769 -0.112,-0.14934 -0.35988,-0.42346 -0.56691,-0.87626 -0.62066,-1.35746 -0.009,-0.0781 -0.005,-0.37825 0.008,-0.66709 l 0.0237,-0.52518 -0.0786,-0.13282 c -0.18196,-0.30752 -0.40585,-1.00489 -0.44648,-1.39071 -0.0189,-0.180177 -0.04,-0.203222 -0.13526,-0.148414 -0.0247,0.0142 -0.71828,0.142764 -1.5414,0.285744 -0.82313,0.14297 -1.9592,0.34037 -2.52461,0.43868 -0.56541,0.0983 -1.03095,0.17873 -1.03454,0.17873 -0.004,0 -0.0145,0.23924 -0.0242,0.53163 -0.0378,1.13555 -0.16136,2.29758 -0.34858,3.27684 l -0.0448,0.2347 0.14607,0.15539 c 0.1421,0.15118 0.34414,0.44161 0.50775,0.72989 0.12938,0.22797 0.23685,0.52662 0.28047,0.77932 0.0684,0.39689 0.009,0.63318 -0.20282,0.80365 -0.14679,0.11822 -0.28702,0.10984 -0.5725,-0.0343 -0.16397,-0.0827 -0.28457,-0.17045 -0.45495,-0.33084 -0.1275,-0.12004 -0.2356,-0.21383 -0.2402,-0.20846 -0.005,0.005 -0.0749,0.16654 -0.15623,0.35813 -0.39632,0.93372 -0.86701,1.5533 -1.40748,1.85273 -0.39302,0.21774 -0.86073,0.22256 -1.27403,0.0131 -0.1136,-0.0575 -0.14856,-0.0631 -0.31074,-0.049 -0.16715,0.0146 -0.56854,-0.0103 -0.83045,-0.0514 l -0.10582,-0.0167 -0.0173,0.0996 c -0.01,0.0549 -0.0396,0.2544 -0.0669,0.44352 -0.0273,0.18914 -0.074,0.41727 -0.10385,0.50695 -0.11378,0.34187 -0.39318,0.69439 -0.6399,0.80734 -0.19247,0.0882 -0.43365,0.0757 -0.59246,-0.0306 -0.0603,-0.0404 -0.10965,-0.0846 -0.10965,-0.0984 0,-0.0138 -0.0288,-0.0592 -0.0638,-0.10097 -0.10377,-0.12334 -0.16841,-0.37804 -0.1683,-0.66325 7e-5,-0.20354 0.0185,-0.32171 0.10077,-0.64881 0.0554,-0.21997 0.1205,-0.49865 0.14473,-0.61928 0.0242,-0.12064 0.0614,-0.2627 0.0824,-0.31571 l 0.0385,-0.0963 -0.15102,-0.1489 c -0.19591,-0.19318 -0.31576,-0.37697 -0.50299,-0.77135 -0.4422,-0.93136 -0.74262,-2.31486 -0.85234,-3.92511 -0.0177,-0.25901 -0.0412,-0.47091 -0.0521,-0.47091 -0.011,0 -0.17208,0.0754 -0.35797,0.16756 -0.3905,0.19358 -0.57242,0.23621 -0.83067,0.19462 -0.19026,-0.0305 -0.39715,-0.16023 -0.52577,-0.32934 -0.24285,-0.31928 -0.14761,-0.83204 0.22948,-1.23564 0.19964,-0.21367 0.4134,-0.34776 0.83795,-0.5256 0.19533,-0.0817 0.4291,-0.18175 0.5195,-0.22209 l 0.16438,-0.0733 -0.0164,-0.1557 c -0.0729,-0.697124 -0.0213,-2.455029 0.10074,-3.432752 0.13456,-1.077132 0.30741,-1.898964 0.46569,-2.214098 0.0347,-0.06894 0.0626,-0.133104 0.0623,-0.142582 -3.6e-4,-0.0095 -0.0498,-0.03985 -0.10966,-0.06748 -0.11777,-0.05429 -0.32297,-0.250155 -0.41809,-0.399059 -0.0324,-0.05091 -0.2195,-0.342217 -0.41551,-0.647343 -0.37879,-0.589673 -0.45169,-0.745075 -0.50046,-1.06677 -0.0722,-0.476327 0.0774,-0.878175 0.37839,-1.015937 0.36049,-0.165042 0.79193,0.03378 1.10772,0.510478 0.0699,0.105461 0.1528,0.254788 0.18431,0.331836 0.0723,0.176794 0.26645,0.517898 0.29484,0.517898 0.0119,0 0.0412,-0.04934 0.0652,-0.109664 0.46924,-1.175232 1.3893,-1.928803 2.35494,-1.928803 0.16101,0 0.31448,0.01713 0.43363,0.04842 0.13978,0.0367 0.23928,0.04529 0.41111,0.03552 0.16215,-0.0092 0.27369,-8.31e-4 0.39179,0.02943 0.0908,0.02328 0.16755,0.03922 0.17051,0.03544 0.003,-0.0038 0.0249,-0.115636 0.0487,-0.248531 0.0893,-0.496868 0.28006,-0.970805 0.51836,-1.287773 0.12597,-0.167565 0.25572,-0.27022 0.447,-0.353671 0.0983,-0.04289 0.12227,-0.04453 0.20644,-0.01414 0.25164,0.09089 0.43136,0.302431 0.53549,0.63036 0.0957,0.301399 0.12284,0.569955 0.10678,1.057159 -0.02,0.606739 -0.0994,0.962342 -0.34014,1.522778 l -0.0927,0.215552 0.1538,0.300049 c 0.15919,0.310624 0.29431,0.641113 0.47077,1.151604 0.21205,0.613424 0.46723,1.633497 0.60476,2.417463 l 0.0416,0.237075 0.15658,-0.167386 c 0.26747,-0.285924 0.64923,-0.433317 1.11591,-0.430831 0.45014,0.0025 0.84719,0.153536 1.13247,0.431068 0.23053,0.224276 0.30993,0.397978 0.32137,0.703036 l 0.009,0.235937 0.3395,0.01699 c 0.18672,0.0093 0.37142,0.02311 0.41045,0.03059 0.039,0.0075 0.0708,0.004 0.0708,-0.0078 -5e-5,-0.01177 -0.0712,-0.07892 -0.15826,-0.149238 -0.27716,-0.224007 -0.53654,-0.579388 -0.6278,-0.860147 -0.0491,-0.151281 -0.0625,-0.357604 -0.0319,-0.495712 0.0194,-0.08815 0.0158,-0.0937 -0.15509,-0.231831 -0.32922,-0.266186 -0.65561,-0.599791 -0.71991,-0.735795 -0.0848,-0.179381 -0.0817,-0.350718 0.01,-0.530795 0.0593,-0.117096 0.0942,-0.152036 0.21288,-0.212837 0.12355,-0.06334 0.16542,-0.07165 0.32368,-0.06427 0.36031,0.01678 0.56065,0.19731 0.8291,0.747148 0.1437,0.294328 0.15311,0.306927 0.21478,0.287501 0.1277,-0.04022 0.46999,-0.0179 0.61929,0.04039 0.0781,0.03047 0.14961,0.05539 0.15901,0.0554 0.01,6e-6 0.0689,-0.07264 0.13229,-0.161422 0.0634,-0.08879 0.26549,-0.321873 0.44919,-0.517967 0.36969,-0.394639 0.70715,-0.663991 1.07467,-0.857782 l 0.22826,-0.120355 -0.17032,-0.167819 c -0.57687,-0.568424 -0.67138,-1.211867 -0.20423,-1.390277 0.0871,-0.03324 0.16198,-0.03941 0.33752,-0.02777 0.12409,0.0082 0.25109,0.02264 0.28222,0.032 0.0473,0.01423 0.063,0.0018 0.0953,-0.07562 0.10029,-0.240024 0.35097,-0.51672 0.63507,-0.70097 0.6774,-0.439332 1.56497,-0.42828 2.08114,0.02591 l 0.13298,0.117013 0.42824,-0.441132 c 0.23553,-0.242622 0.42824,-0.450384 0.42824,-0.461691 0,-0.0113 -0.0398,-0.07962 -0.0883,-0.151803 -0.18863,-0.280293 -0.27752,-0.660455 -0.22329,-0.954798 0.0571,-0.310017 0.17124,-0.536045 0.3692,-0.731276 0.65473,-0.645693 1.88058,-0.598804 2.58516,0.09888 0.28217,0.279404 0.4772,0.738384 0.44283,1.042146 -0.0368,0.325709 0.10009,1.001648 0.22579,1.114447 0.0307,0.02764 0.1079,0.08756 0.17134,0.133184 0.18193,0.130788 0.28459,0.282382 0.28459,0.420189 0,0.06346 -0.0179,0.149878 -0.0396,0.192028 -0.0532,0.102892 -0.22339,0.222358 -0.3839,0.269489 -0.3228,0.09479 -0.3906,0.13566 -0.45576,0.274803 -0.15868,0.338788 -0.5877,0.536434 -0.99685,0.459234 l -0.17316,-0.03268 -0.10425,0.116582 c -0.1498,0.167519 -0.75938,0.833963 -0.91393,0.999177 -0.0722,0.07713 -0.12651,0.144927 -0.12079,0.150645 0.006,0.0057 0.0607,-0.01865 0.12209,-0.05415 0.15243,-0.08808 0.51168,-0.210467 0.7332,-0.249765 0.29733,-0.05276 0.87398,-0.02193 1.15346,0.06165 0.52782,0.157866 0.95315,0.448954 1.19198,0.815777 0.14847,0.228032 0.17942,0.292336 0.24564,0.510425 0.0483,0.15905 0.0554,0.232311 0.0464,0.477362 -0.009,0.242541 -0.0224,0.318768 -0.0836,0.470104 -0.17479,0.432249 -0.54935,0.800057 -1.00581,0.987665 -0.52862,0.217262 -1.19095,0.244181 -1.73749,0.07061 -0.10299,-0.03271 -0.19144,-0.05197 -0.19658,-0.04281 -0.005,0.0091 -0.0301,0.08052 -0.0557,0.158575 -0.0807,0.247302 -0.28237,0.674043 -0.45723,0.967627 -0.32511,0.545868 -0.52716,0.792795 -0.95828,1.171099 l -0.0995,0.08735 0.7398,0.187162 c 0.4069,0.102938 0.75956,0.204545 0.78371,0.225793 0.0241,0.0212 0.10777,0.0703 0.18583,0.109174 0.55684,0.2768 1.00338,0.83868 1.19145,1.49916 0.0465,0.16334 0.0581,0.27022 0.0585,0.53916 6.3e-4,0.29234 -0.0101,0.37856 -0.0825,0.6709 -0.0778,0.31398 -0.50232,2.21676 -0.59011,2.64485 -0.0222,0.10825 -0.0614,0.21699 -0.0892,0.24678 -0.12372,0.13309 -0.13038,0.7031 -0.0129,1.10202 0.13736,0.46628 0.44832,0.96775 0.76575,1.23488 0.37226,0.31328 0.65029,0.44428 1.24292,0.58569 0.26332,0.0628 0.5786,0.2105 0.90781,0.42521 0.27466,0.17912 0.7314,0.62984 0.86203,0.85063 0.38344,0.64808 0.32656,1.25249 -0.16151,1.71611 -0.36463,0.34636 -0.86067,0.53908 -1.53333,0.5957 -0.26122,0.022 -0.36567,0.005 -0.36567,-0.0595 0,-0.057 0.0841,-0.0918 0.22407,-0.0924 0.28611,-9.5e-4 0.76092,-0.10169 1.04986,-0.22227 0.34566,-0.14424 0.63251,-0.39528 0.76921,-0.67316 0.0815,-0.16577 0.0856,-0.18764 0.0846,-0.45832 -9.5e-4,-0.33294 -0.0426,-0.46407 -0.24189,-0.76696 -0.25118,-0.38156 -0.68187,-0.74088 -1.20928,-1.00885 -0.22987,-0.11681 -0.33261,-0.15195 -0.6073,-0.20774 -0.36181,-0.0735 -0.53727,-0.14619 -0.84964,-0.35208 -0.23163,-0.15266 -0.56976,-0.48091 -0.71358,-0.69269 -0.13539,-0.19938 -0.29745,-0.54831 -0.382,-0.82251 -0.0641,-0.20808 -0.0699,-0.26273 -0.071,-0.67132 -9.6e-4,-0.38279 -0.007,-0.44325 -0.04,-0.43357 -0.0212,0.007 -0.0809,0.0187 -0.13237,0.0278 l -0.0936,0.0166 -0.18639,0.52024 c -0.26798,0.74796 -0.67133,1.90609 -0.67133,1.92753 0,0.01 0.13064,0.0242 0.29029,0.0315 0.33594,0.0153 0.48264,0.0592 0.63651,0.191 0.13254,0.11343 0.20877,0.25857 0.2266,0.43137 l 0.0137,0.13224 0.20434,-0.01 c 0.2461,-0.0112 0.33648,0.0208 0.41412,0.14641 0.0706,0.11419 0.076,0.36136 0.0125,0.56896 -0.0943,0.30824 -0.43316,0.84367 -0.74674,1.17998 -0.0817,0.0877 -0.2414,0.23247 -0.35481,0.3218 -0.11339,0.0893 -0.20617,0.17119 -0.20617,0.18193 0,0.0107 0.0552,0.0273 0.12257,0.0366 0.68768,0.0956 1.16698,0.32479 1.16751,0.55825 0,0.13203 -0.22109,0.26182 -0.59155,0.34681 -0.25007,0.0573 -1.19935,0.0706 -1.55003,0.0217 z m -1.31205,-0.85917 c -0.008,-0.15946 0,-0.19929 0.0552,-0.29422 0.0352,-0.0604 0.24602,-0.47178 0.46825,-0.91419 0.22224,-0.44241 0.43924,-0.84883 0.48223,-0.90313 0.12193,-0.15399 0.26771,-0.24051 0.40702,-0.2415 0.0832,-4e-4 1.1824,-0.10713 1.31209,-0.12717 0.0166,-0.003 0.004,-0.15282 -0.0209,-0.24038 -0.0379,-0.13643 -0.15735,-0.26222 -0.32921,-0.34661 -0.13671,-0.0672 -0.16839,-0.072 -0.46914,-0.072 -0.38165,0 -0.61587,0.0528 -1.02783,0.23159 -0.3286,0.14263 -0.39851,0.19196 -0.48802,0.34422 -0.0691,0.11752 -0.0707,0.12949 -0.0598,0.43053 0.007,0.1703 0.012,0.3793 0.0129,0.46445 l 9.6e-4,0.15483 -0.0738,-0.008 c -0.25318,-0.0271 -0.5068,-0.20516 -0.5068,-0.35599 0,-0.12977 0.11627,-0.21628 0.34191,-0.25434 0.0804,-0.0136 0.0967,-0.0268 0.0967,-0.0782 0,-0.034 -0.0113,-0.0688 -0.0252,-0.0774 -0.0343,-0.0211 -0.40246,0.0507 -0.58141,0.1136 -0.31586,0.11102 -0.48234,0.25869 -0.48234,0.42786 0,0.18998 0.20038,0.3495 0.60038,0.47794 0.24933,0.08 0.31092,0.13085 0.18166,0.14981 -0.0906,0.0133 -0.3877,-0.0876 -0.55422,-0.188 -0.0833,-0.0503 -0.16085,-0.0914 -0.17226,-0.0914 -0.0256,0 -0.23059,0.52372 -0.24947,0.6374 -0.0282,0.16985 0.27542,0.51914 0.63049,0.72532 0.32709,0.18994 0.40716,0.23162 0.433,0.22539 0.0153,-0.004 0.0221,-0.0815 0.0169,-0.19065 z m -0.40516,0.12912 c -0.0135,-0.0119 -0.10581,-0.0748 -0.20519,-0.13964 -0.0994,-0.0649 -0.25245,-0.18982 -0.34021,-0.27757 l -0.15954,-0.15954 -0.0802,0.0474 c -0.1738,0.10266 -0.11514,0.23374 0.16619,0.37143 0.21413,0.10479 0.69891,0.22853 0.61891,0.15798 z m 1.45597,-0.17214 c 0.82637,-0.17153 1.00537,-0.22529 1.25743,-0.37766 0.4532,-0.27396 1.03312,-1.09963 1.08601,-1.54623 l 0.0141,-0.11846 -0.21595,-0.0495 c -0.33748,-0.0774 -0.9327,-0.067 -1.26754,0.0223 -0.26372,0.0703 -0.49213,0.17743 -0.64068,0.30046 -0.0567,0.0468 -0.17591,0.23145 -0.33329,0.51565 -0.47974,0.86624 -0.72937,1.30585 -0.76439,1.34603 -0.0491,0.0564 -0.0444,0.0984 0.01,0.0859 0.0249,-0.006 0.40948,-0.0861 0.85474,-0.17848 z m -0.67374,-0.45229 c 0.12119,-0.21944 0.29794,-0.53832 0.39279,-0.70862 0.0948,-0.17031 0.1985,-0.36456 0.23033,-0.43165 0.11174,-0.23553 0.42672,-0.45603 0.79864,-0.55908 0.41483,-0.11496 1.06413,-0.13503 1.43537,-0.0443 0.085,0.0208 0.15873,0.0336 0.16378,0.0286 0.005,-0.005 -0.0119,-0.0447 -0.0374,-0.0882 -0.074,-0.12528 -0.16459,-0.14099 -0.54503,-0.0946 -0.76906,0.0939 -1.03905,0.12308 -1.25827,0.13627 -0.4027,0.0242 -0.40821,0.0307 -0.96719,1.14951 -0.48653,0.97379 -0.51605,1.03867 -0.4647,1.02155 0.0173,-0.006 0.13057,-0.19001 0.25176,-0.40945 z m -3.68381,-0.16859 c 0.21604,-0.0648 0.32716,-0.13064 0.39906,-0.23645 0.0776,-0.11421 0.0798,-0.13812 0.0198,-0.21227 l -0.0456,-0.0563 -0.20599,0.0692 c -0.20467,0.0688 -0.45249,0.0997 -0.98256,0.12272 -0.12908,0.006 -0.24811,0.0185 -0.26448,0.0286 -0.0476,0.0295 -0.0346,0.11011 0.03,0.18515 0.13427,0.15612 0.68636,0.20835 1.04982,0.0993 z m -1.74997,-0.12742 c 0.17816,-0.0361 0.31516,-0.10431 0.29031,-0.1445 -0.008,-0.0126 -0.0867,-0.023 -0.17541,-0.023 -0.35064,0 -1.35033,-0.15231 -1.88711,-0.28753 -0.29874,-0.0752 -0.65507,-0.19591 -0.75818,-0.25675 -0.0881,-0.0521 -0.0901,-0.0521 -0.15581,-0.003 -0.0366,0.0273 -0.0703,0.0808 -0.0748,0.11913 -0.0221,0.18587 0.41192,0.38447 1.25213,0.57296 0.38322,0.086 1.14108,0.0975 1.50889,0.023 z m -9.31407,-0.0594 c 0.0324,-0.0297 0.0987,-0.0862 0.14732,-0.12577 0.1276,-0.10375 0.29989,-0.3481 0.36143,-0.51256 0.0587,-0.15695 0.2046,-0.99807 0.22576,-1.30169 0.0286,-0.40961 -0.15085,-0.83414 -0.40986,-0.96983 -0.16864,-0.0884 -0.40358,-0.0158 -0.58355,0.18019 -0.10617,0.11563 -0.26273,0.40028 -0.26277,0.47779 -2e-5,0.02 -0.045,0.21747 -0.0999,0.43866 -0.208,0.83735 -0.21696,0.88667 -0.20516,1.12915 0.0127,0.26143 0.0845,0.44999 0.23029,0.60454 0.13171,0.13961 0.1711,0.15518 0.36423,0.14368 0.12986,-0.008 0.18812,-0.0238 0.23223,-0.0642 z m 10.58667,-0.23623 c 0.56806,-0.0348 0.89213,-0.1657 0.99687,-0.40248 0.0807,-0.18231 0.0121,-0.3776 -0.20691,-0.58969 l -0.10448,-0.10117 -0.20489,0.0468 c -0.347,0.0793 -0.4056,-0.0106 -0.0663,-0.10169 0.25623,-0.0688 0.37632,-0.12628 0.47557,-0.2278 0.096,-0.0982 0.0988,-0.18168 0.009,-0.26494 -0.0686,-0.0637 -0.28235,-0.1427 -0.33118,-0.12251 -0.0594,0.0246 -0.16163,0.20888 -0.14987,0.27045 0.0203,0.10628 -0.0474,0.13547 -0.33923,0.14628 -0.31649,0.0117 -0.53961,-0.0288 -0.62397,-0.11309 -0.0663,-0.0663 -0.0579,-0.14073 0.0159,-0.14073 0.0273,0 0.0878,-0.0643 0.15114,-0.16076 0.12953,-0.1971 0.115,-0.21224 -0.18603,-0.19375 -0.27694,0.017 -0.50166,0.12597 -0.61535,0.29833 -0.1322,0.20048 0.0268,0.38816 0.37958,0.44803 0.0282,0.005 0.0552,0.0289 0.0599,0.0536 0.007,0.0354 -0.01,0.0448 -0.079,0.0448 -0.15294,0 -0.32015,-0.0742 -0.42258,-0.18761 -0.0927,-0.10261 -0.11012,-0.10983 -0.52369,-0.21713 -0.23529,-0.0611 -0.63099,-0.16395 -0.87934,-0.22868 -0.48988,-0.12766 -0.58866,-0.13207 -0.77924,-0.0348 -0.29231,0.14913 -0.4343,0.41974 -0.47555,0.90634 l -0.0169,0.19934 0.10088,0.10089 c 0.0827,0.0826 0.1473,0.11511 0.35845,0.17976 0.69352,0.21237 1.25555,0.3146 2.34765,0.42707 0.11786,0.0122 0.58148,-0.003 1.10955,-0.0347 z m -7.5195,-1.39651 c 0.56182,-0.18315 1.07241,-0.76339 1.50788,-1.71356 0.62091,-1.35482 0.99454,-3.12528 1.13537,-5.38001 0.0208,-0.33351 0.038,-0.70289 0.038,-0.82084 l 1.4e-4,-0.21447 -0.10967,0.0169 c -0.0603,0.01 -0.21997,0.0362 -0.35479,0.0598 l -0.24514,0.043 0.005,0.0773 c 0.003,0.0425 0.005,0.35588 0.007,0.69648 0.005,1.32713 -0.15632,2.39398 -0.51396,3.39238 -0.25087,0.70031 -0.65432,1.30123 -1.04998,1.56385 -0.30756,0.20414 -0.67676,0.25028 -1.00729,0.12587 -0.70195,-0.26421 -1.34209,-1.32303 -1.66853,-2.75979 -0.31842,-1.40146 -0.35971,-2.67052 -0.16873,-5.186484 0.0536,-0.705455 0.20586,-1.864499 0.30689,-2.335207 0.30515,-1.421881 0.59163,-2.242522 0.99665,-2.85494 0.44447,-0.672067 0.99103,-0.800953 1.4837,-0.349875 0.73787,0.675561 1.36764,2.813134 1.58275,5.372301 0.008,0.09225 0.0253,0.301254 0.039,0.46446 0.0138,0.163207 0.0324,0.462204 0.0418,0.664438 l 0.017,0.367707 0.068,-9.5e-4 c 0.0374,-7.7e-4 0.17836,-0.0211 0.31318,-0.0453 l 0.24514,-0.044 -0.005,-0.386885 c -0.0188,-1.357158 -0.24832,-3.117383 -0.57893,-4.437998 -0.2911,-1.162735 -0.56812,-1.889807 -1.0624,-2.788528 -0.19738,-0.358867 -0.57174,-0.797536 -0.86492,-1.013504 -0.22376,-0.164816 -0.35131,-0.227532 -0.56494,-0.277791 -0.57382,-0.134997 -1.17181,0.195503 -1.68763,0.932726 -0.16652,0.237998 -0.46354,0.816594 -0.61725,1.202416 -0.93051,2.335596 -1.24492,5.993066 -0.80936,9.414774 0.31524,2.4765 1.01309,4.51965 1.90216,5.56919 0.28086,0.33156 0.68612,0.62621 0.92633,0.67351 0.21544,0.0425 0.51791,0.0309 0.69379,-0.0265 z m -1.29236,-0.15046 c 0,-0.0131 -0.0642,-0.0787 -0.14259,-0.14563 -0.27469,-0.23468 -0.6715,-0.78519 -0.91024,-1.26283 -0.50805,-1.01643 -0.85233,-2.12124 -1.12969,-3.6252 -0.42175,-2.2868 -0.46483,-5.136439 -0.11295,-7.470092 0.17534,-1.162747 0.5321,-2.501226 0.8629,-3.237253 0.15758,-0.350646 0.43016,-0.852977 0.57462,-1.059011 0.17974,-0.256336 0.60908,-0.668043 0.80482,-0.771742 0.15899,-0.08422 0.16336,-0.08908 0.10313,-0.114714 -0.10586,-0.04504 -0.63446,-0.03401 -0.8241,0.0172 -0.47385,0.127952 -0.96113,0.479904 -1.31546,0.950134 -0.15575,0.206681 -0.40007,0.661134 -0.50471,0.9388 l -0.0585,0.155265 0.13999,0.225764 c 0.20147,0.32496 0.24853,0.456028 0.25205,0.702269 0.007,0.489721 -0.26512,0.787003 -0.7204,0.787003 -0.1266,0 -0.14072,0.0062 -0.18853,0.08385 -0.2444,0.396633 -0.47638,1.639522 -0.58636,3.141563 -0.045,0.614836 -0.0616,2.085294 -0.0274,2.426644 l 0.0195,0.19465 0.24428,-0.0107 c 0.38493,-0.0169 0.62087,0.0793 0.77829,0.31687 0.17018,0.25694 0.16691,0.55826 -0.01,0.89144 -0.15311,0.28888 -0.40741,0.51558 -0.78145,0.69669 l -0.23981,0.11612 0.0167,0.33544 c 0.0668,1.3367 0.32316,2.72483 0.67666,3.66409 0.12132,0.32228 0.37298,0.81503 0.49243,0.96408 0.11654,0.14543 0.26174,0.28721 0.29426,0.28731 0.01,3e-5 0.0415,-0.0392 0.0711,-0.0871 0.073,-0.11823 0.26941,-0.29568 0.37681,-0.34055 0.12708,-0.0531 0.33077,-0.0464 0.4508,0.0149 0.26215,0.13374 0.42152,0.44877 0.4597,0.90869 0.0164,0.19766 0.0228,0.2156 0.0865,0.24612 0.1197,0.0572 0.84723,0.10876 0.84723,0.0599 z m 4.36077,-1.59732 c 0.31048,-0.22391 0.16003,-1.0381 -0.31968,-1.72999 -0.0726,-0.1046 -0.14571,-0.21491 -0.16261,-0.24513 -0.0169,-0.0303 -0.0758,-0.0988 -0.13085,-0.15243 l -0.10013,-0.0975 -0.10792,0.43294 c -0.0593,0.23812 -0.16013,0.59282 -0.22394,0.78823 -0.0637,0.19541 -0.11602,0.3697 -0.11602,0.3873 0,0.0508 0.43859,0.46616 0.57875,0.54809 0.24324,0.14214 0.44703,0.16611 0.5824,0.0684 z m -2.85242,-0.54204 c 0.32676,-0.15291 0.7138,-0.60882 0.96244,-1.13374 0.11182,-0.23604 0.39369,-1.05172 0.3931,-1.13759 -1.5e-4,-0.0286 -0.0217,-0.0151 -0.0665,0.0416 -0.17221,0.21852 -0.4397,0.22987 -0.7039,0.03 -0.0879,-0.0665 -0.13759,-0.0903 -0.14459,-0.0689 -0.006,0.0178 -0.0308,0.10789 -0.0553,0.20015 -0.066,0.24769 -0.27534,0.75062 -0.42548,1.02162 -0.16449,0.29694 -0.49856,0.74229 -0.68381,0.9116 -0.13004,0.11884 -0.13678,0.13054 -0.0899,0.15565 0.0986,0.0528 0.24959,0.0763 0.44286,0.0691 0.1559,-0.006 0.23106,-0.0239 0.37103,-0.0894 z m -0.74959,-0.27098 c 0.48428,-0.50063 0.90233,-1.271 1.05518,-1.94442 l 0.0558,-0.24617 -0.49243,-0.97111 c -0.27083,-0.53412 -0.51873,-1.03789 -0.55085,-1.11949 -0.0617,-0.15638 -0.0753,-0.16469 -0.20036,-0.12111 l -0.0782,0.0273 -0.10833,0.55976 c -0.12467,0.64432 -0.49253,2.51726 -0.57489,2.92707 -0.0553,0.27589 -0.0554,0.27766 -0.005,0.36516 0.15687,0.27412 0.5746,0.71154 0.68007,0.7121 0.0199,8e-5 0.11864,-0.0849 0.21933,-0.18906 z m 11.5974,-0.76361 c 0.15439,-0.0788 0.21405,-0.16905 0.20484,-0.31008 l -0.008,-0.11754 -0.15483,-0.0187 c -0.53759,-0.065 -1.04674,-0.28374 -1.52706,-0.65621 -0.11609,-0.0901 -0.2166,-0.16369 -0.22335,-0.16369 -0.007,0 -0.10174,0.0985 -0.2111,0.21899 -0.17367,0.19129 -0.19663,0.22777 -0.18146,0.28824 0.0295,0.11742 0.39468,0.45078 0.62356,0.56919 0.51714,0.26753 1.16222,0.35042 1.47704,0.18981 z m 2.44209,0.0273 c 0.72422,-0.1224 0.77469,-0.14029 0.81008,-0.2872 0.0361,-0.15005 0.44594,-2.00498 0.51023,-2.30941 0.0328,-0.15611 0.0858,-0.38253 0.11745,-0.50316 0.0733,-0.27969 0.0783,-0.7281 0.0108,-0.98053 -0.0748,-0.27981 -0.30156,-0.71258 -0.48677,-0.92917 -0.18076,-0.21136 -0.47154,-0.44606 -0.68414,-0.55216 -0.68367,-0.341223 -2.85116,0.33975 -4.25136,1.33566 -0.3781,0.26893 -0.7503,0.5981 -0.85701,0.75793 -0.0541,0.081 -0.0528,0.55565 0.003,0.80238 0.0895,0.40201 0.28958,0.76347 0.62952,1.13728 0.3597,0.39557 0.90122,0.72419 1.43804,0.87265 0.23087,0.0639 0.30015,0.0713 0.65799,0.0711 0.31538,-1.4e-4 0.43186,-0.0102 0.5509,-0.0476 0.21885,-0.0685 0.23784,-0.0292 0.0728,0.15143 -0.0744,0.0813 -0.14576,0.18983 -0.16314,0.24785 -0.0287,0.0958 -0.0265,0.1076 0.0316,0.16538 0.0344,0.0342 0.12643,0.08 0.20448,0.10181 0.20095,0.056 0.9843,0.037 1.40628,-0.0344 z m -4.16725,-2.04804 c -0.33013,-0.17703 -0.3767,-0.61879 -0.0985,-0.93479 0.32051,-0.36411 0.87056,-0.35246 1.05198,0.0223 0.14186,0.29304 -0.01,0.69527 -0.33046,0.87505 -0.19713,0.11062 -0.45736,0.12625 -0.62296,0.0374 z m 0.58429,-0.1375 c 0.35406,-0.21791 0.42089,-0.70527 0.12213,-0.89063 -0.12042,-0.0748 -0.36361,-0.0812 -0.49501,-0.0133 -0.24003,0.12412 -0.37358,0.32685 -0.37696,0.57225 -0.002,0.13226 0.009,0.17103 0.067,0.24748 0.10188,0.13358 0.21007,0.17956 0.39905,0.16963 0.1213,-0.007 0.18797,-0.0265 0.28383,-0.0855 z m 1.45401,-0.93687 c -0.54417,-0.17788 -0.73563,-0.78244 -0.37488,-1.18368 0.16484,-0.18334 0.32735,-0.25045 0.60728,-0.2508 0.17428,-2.2e-4 0.24582,0.0119 0.34834,0.0589 0.25873,0.11857 0.42374,0.3443 0.44496,0.60875 0.0243,0.30366 -0.11102,0.54998 -0.3841,0.69876 -0.11713,0.0639 -0.17181,0.0764 -0.35759,0.0822 -0.12064,0.004 -0.24844,-0.002 -0.28401,-0.0142 z m 0.57151,-0.15632 c 0.15845,-0.0817 0.22634,-0.15019 0.29623,-0.29839 0.11441,-0.24263 0.0691,-0.47091 -0.13393,-0.67522 -0.20788,-0.20913 -0.48566,-0.26845 -0.76599,-0.16357 -0.25041,0.0936 -0.41147,0.31717 -0.41147,0.57098 0,0.2667 0.15203,0.48199 0.41964,0.59423 0.15683,0.0658 0.43962,0.0525 0.59552,-0.028 z m -13.48423,3.12699 c 0.0145,-0.083 0.14632,-0.76095 0.41506,-2.13523 0.0361,-0.18448 0.10895,-0.55368 0.16194,-0.82042 0.053,-0.26676 0.0889,-0.48957 0.0798,-0.49514 -0.01,-0.006 -0.0622,7.6e-4 -0.1182,0.0138 -0.0559,0.0131 -0.23822,0.0316 -0.40497,0.0412 -0.16675,0.01 -0.3032,0.0185 -0.3032,0.0199 0,0.002 -0.0987,0.42019 -0.21932,0.93034 -0.12064,0.51016 -0.21933,0.9473 -0.21933,0.97142 0,0.19966 0.49886,1.57098 0.5715,1.57098 0.0108,0 0.0273,-0.0436 0.0367,-0.0967 z m 2.87536,-1.05958 c 0.0355,-0.0254 0.0935,-0.10364 0.12903,-0.17387 0.0553,-0.10948 0.0645,-0.16258 0.0645,-0.37281 0,-0.27611 -0.0414,-0.41752 -0.18479,-0.63183 -0.0474,-0.0707 -0.0861,-0.13614 -0.0861,-0.14527 0,-0.01 -0.13453,-0.24675 -0.29894,-0.52806 -0.16441,-0.28131 -0.32717,-0.56719 -0.36168,-0.63528 -0.0345,-0.0682 -0.068,-0.12383 -0.0743,-0.12383 -0.007,0 -0.0665,0.0348 -0.13364,0.0774 -0.18788,0.11914 -0.34311,0.10474 -0.50568,-0.0469 l -0.0711,-0.0664 -0.1159,0.0563 c -0.0638,0.031 -0.1159,0.0732 -0.1159,0.094 0,0.0487 0.60048,1.26777 0.84238,1.71007 0.10251,0.18746 0.20876,0.39065 0.2361,0.45155 0.10048,0.22388 0.37076,0.42358 0.53424,0.39474 0.0426,-0.008 0.10643,-0.0345 0.14191,-0.0598 z m 0.36129,-0.59183 c 2e-5,-0.0106 0.0175,-0.11804 0.039,-0.23868 0.0888,-0.50073 0.14167,-1.21004 0.14127,-1.895 -2.2e-4,-0.36984 -0.0106,-0.68869 -0.0232,-0.70854 -0.0194,-0.0306 -0.0778,-0.027 -0.3802,0.0236 -0.19654,0.0328 -0.37027,0.0695 -0.38607,0.0815 -0.0158,0.012 -0.0367,0.10945 -0.0463,0.21657 -0.0218,0.24137 -0.12978,0.67495 -0.18246,0.73316 -0.0215,0.0238 -0.0392,0.05 -0.0392,0.058 0,0.009 0.16865,0.30863 0.37477,0.66785 0.368,0.64134 0.45093,0.8244 0.45093,0.99526 0,0.0471 0.0116,0.0856 0.0258,0.0856 0.0142,0 0.0258,-0.009 0.0258,-0.0193 z m -3.70374,-0.94627 c 0.0955,-0.41045 0.17883,-0.75974 0.18514,-0.7762 0.007,-0.0186 -0.0453,-0.0427 -0.13795,-0.0634 -0.0821,-0.0185 -0.2133,-0.0639 -0.29137,-0.10092 -0.0781,-0.0371 -0.15226,-0.072 -0.16485,-0.0774 -0.0438,-0.0191 0.038,0.93775 0.12798,1.49328 0.0472,0.29161 0.0572,0.32605 0.0859,0.2946 0.0119,-0.013 0.0997,-0.3595 0.1952,-0.76996 z m -3.9212,0.10451 c 0.0709,-0.0191 0.33612,-0.13511 0.58926,-0.25772 0.25313,-0.12263 0.46793,-0.22298 0.47736,-0.22303 0.01,-5e-5 0.0904,-0.0441 0.17981,-0.098 0.33573,-0.20214 0.59108,-0.53464 0.648,-0.84372 0.0625,-0.33958 -0.13766,-0.65469 -0.46799,-0.73669 -0.18543,-0.046 -0.47037,-0.0205 -0.65234,0.0583 -0.0851,0.037 -0.30863,0.13141 -0.49663,0.21003 -0.54853,0.22937 -0.69193,0.31397 -0.92394,0.54514 -0.17052,0.16991 -0.22092,0.23948 -0.2808,0.38769 -0.22382,0.55395 0.0471,0.98907 0.61763,0.99192 0.0994,4e-4 0.23869,-0.0147 0.30964,-0.0339 z m 6.75921,-1.1451 c 0.0414,-0.11997 0.11695,-0.55379 0.11724,-0.67304 3e-4,-0.10073 -0.0568,-0.0495 -0.12715,0.1142 -0.0365,0.0847 -0.0981,0.20798 -0.13718,0.27394 -0.039,0.066 -0.0709,0.13319 -0.0709,0.14944 0,0.0419 0.12971,0.25802 0.15486,0.25802 0.0115,0 0.04,-0.0551 0.0633,-0.12256 z m -0.48388,-0.0553 c 0.0568,-0.0412 0.15031,-0.14535 0.20794,-0.23164 0.10551,-0.15802 0.20537,-0.38048 0.18148,-0.40436 -0.007,-0.007 -0.13358,0.0105 -0.28111,0.0392 -0.14753,0.0287 -0.27114,0.0522 -0.27468,0.0522 -0.004,4e-5 -0.007,0.0295 -0.007,0.0655 0,0.098 -0.0613,0.22224 -0.15165,0.30719 -0.0982,0.0925 -0.10031,0.12427 -0.0125,0.19328 0.0959,0.0754 0.21386,0.0681 0.33707,-0.0213 z m 0.41507,-1.41173 c 0.10444,-0.0209 0.11537,-0.0892 0.0827,-0.516966 -0.0416,-0.546183 -0.20036,-1.059249 -0.40124,-1.296903 -0.10448,-0.123603 -0.2602,-0.188661 -0.37543,-0.156846 -0.16468,0.04547 -0.34158,0.28242 -0.44271,0.59298 -0.0819,0.251732 -0.0838,0.243106 0.0648,0.31194 0.0738,0.03421 0.18234,0.09869 0.24113,0.143271 0.0729,0.0553 0.11824,0.07388 0.14259,0.05846 0.0196,-0.01243 0.0721,-0.02279 0.1165,-0.02301 0.19601,-9.5e-4 0.39548,0.378795 0.39625,0.754364 3.8e-4,0.16191 0.007,0.1665 0.17535,0.13271 z m 0.75387,-0.11712 c 0.20579,-0.031 0.38463,-0.0655 0.39741,-0.0767 0.0229,-0.02 -0.0293,-1.122887 -0.0552,-1.167077 -0.007,-0.01195 -0.039,0.04301 -0.0712,0.122126 -0.11056,0.272032 -0.34438,0.474125 -0.63524,0.549053 -0.13931,0.03589 -0.1753,0.05469 -0.16338,0.08534 0.0168,0.04297 0.0501,0.227638 0.0757,0.419928 0.01,0.0679 0.0302,0.12278 0.047,0.12307 0.0169,2.9e-4 0.19904,-0.0249 0.40481,-0.0558 z m 1.74175,-0.28001 c 0.19867,-0.0303 0.41349,-0.0716 0.47735,-0.0917 0.0638,-0.02005 0.26126,-0.05958 0.43866,-0.08784 2.97316,-0.473842 3.04793,-0.486057 3.06222,-0.50034 0.006,-0.006 -0.004,-0.110099 -0.0211,-0.231508 -0.0249,-0.171899 -0.0252,-0.270885 -9.6e-4,-0.44734 0.0168,-0.124626 0.0218,-0.233991 0.0114,-0.243034 -0.0104,-0.009 -0.35567,-0.03034 -0.76724,-0.04735 -0.41156,-0.017 -0.86629,-0.03776 -1.01051,-0.04613 l -0.26221,-0.01522 -0.0662,0.130554 c -0.10521,0.207608 -0.31407,0.437994 -0.51745,0.570761 -0.25733,0.167996 -0.48014,0.237269 -0.81432,0.253194 -0.32101,0.0153 -0.52443,-0.02455 -0.81822,-0.160293 -0.10746,-0.04965 -0.20245,-0.09029 -0.2111,-0.09032 -0.009,-2.7e-5 -0.005,0.244659 0.008,0.543749 0.0226,0.534631 0.0239,0.543601 0.0774,0.530921 0.03,-0.007 0.21695,-0.0377 0.41565,-0.0682 z m -1.98687,-0.448437 c 0.24212,-0.113965 0.43316,-0.365026 0.46731,-0.614124 0.0676,-0.493455 -0.50346,-0.71431 -0.9555,-0.369518 -0.0483,0.03688 -0.0937,0.08223 -0.10084,0.10078 -0.007,0.01855 0.0262,0.131166 0.074,0.250258 0.0478,0.11909 0.10778,0.323884 0.13327,0.455096 l 0.0463,0.238567 0.10321,-1.46e-4 c 0.0568,-7.4e-5 0.16127,-0.02749 0.23224,-0.0609 z m 10.87742,-0.226923 c 0.22537,-0.180544 0.4044,-0.372006 0.6354,-0.679473 0.51517,-0.685713 0.65203,-1.389046 0.38154,-1.960794 -0.0808,-0.170915 -0.30783,-0.386372 -0.5118,-0.485836 -0.56016,-0.273148 -1.39312,-0.15655 -2.15656,0.301874 -0.26814,0.161016 -0.38111,0.197624 -0.34862,0.112967 0.0135,-0.0351 0.35884,-0.258831 0.54085,-0.350356 0.33109,-0.166489 0.73666,-0.863339 0.79921,-1.373169 0.0224,-0.182612 -0.0236,-0.461882 -0.10383,-0.631689 -0.18645,-0.394098 -0.68241,-0.630689 -1.25014,-0.596361 -0.40102,0.02425 -0.8543,0.166879 -1.22062,0.3841 -0.13814,0.08192 -0.18213,0.09736 -0.20642,0.07241 -0.0241,-0.02474 -0.0136,-0.04679 0.0481,-0.10053 0.0865,-0.07546 0.09,-0.147121 0.009,-0.173029 -0.13726,-0.04356 -0.90928,0.446287 -1.13706,0.721482 -0.0692,0.08365 -0.0692,0.08384 -0.0267,0.202214 0.037,0.103108 0.0384,0.139666 0.01,0.281673 -0.0369,0.18351 -0.16591,0.472664 -0.28016,0.627417 l -0.076,0.102982 0.17599,0.206659 c 0.16856,0.197932 0.21572,0.296971 0.1414,0.296971 -0.0189,0 -0.11315,-0.09386 -0.20918,-0.208578 -0.18764,-0.224168 -0.51468,-0.485746 -0.72386,-0.578958 -0.18858,-0.08403 -0.4005,-0.12523 -0.53812,-0.104592 -0.0653,0.0098 -0.12492,0.02793 -0.13258,0.04033 -0.008,0.01239 0.0153,0.109559 0.051,0.215936 0.12809,0.381553 0.0671,0.584265 -0.17591,0.584265 -0.0789,0 -0.16904,-0.02761 -0.29134,-0.08915 -0.10027,-0.05046 -0.18686,-0.07943 -0.19956,-0.06674 -0.0123,0.01234 -0.0181,0.108454 -0.0128,0.213608 0.0242,0.479745 0.47029,1.011222 1.18794,1.415443 0.38833,0.218721 0.56192,0.273248 0.93705,0.294346 0.7649,0.04302 1.44196,0.07256 1.574,0.06866 0.22584,-0.0066 0.77758,-0.157408 0.97546,-0.266514 0.0343,-0.01889 0.1778,-0.09374 0.31897,-0.166327 0.32478,-0.167008 0.41391,-0.223624 0.66,-0.419176 0.10966,-0.08714 0.2102,-0.158435 0.22342,-0.158435 0.0706,0 0.0339,0.229654 -0.087,0.543021 -0.15669,0.406306 -0.33222,0.713281 -0.63609,1.112462 -0.0835,0.109623 -0.15172,0.206727 -0.15172,0.215789 0,0.01891 0.0793,0.0046 0.38607,-0.0698 0.50086,-0.121407 0.95855,0.07843 1.02058,0.445598 0.016,0.09463 0.0504,0.118066 0.22026,0.149976 0.008,0.0014 0.0891,-0.05734 0.18061,-0.130668 z M 184.45,96.849868 c 0,-0.05672 0.19981,-0.222013 0.35815,-0.296252 0.12702,-0.05955 0.17706,-0.06789 0.40304,-0.06709 0.20728,7.67e-4 0.2874,0.01258 0.40725,0.06023 0.1722,0.06846 0.36279,0.205175 0.37509,0.269083 0.0136,0.07033 -0.0613,0.05212 -0.20239,-0.04931 -0.35225,-0.253065 -0.80816,-0.251428 -1.12178,0.004 -0.14316,0.116597 -0.21936,0.144147 -0.21936,0.0793 z m -3.03691,-0.491089 c -0.0658,-0.0566 -0.0722,-0.07736 -0.0702,-0.225779 0.005,-0.312506 0.20211,-0.725165 0.48804,-1.017749 0.25759,-0.263591 0.45031,-0.303242 0.53069,-0.109187 0.12967,0.313058 -0.32646,1.189271 -0.71131,1.366407 -0.13383,0.0616 -0.15095,0.0606 -0.23725,-0.01369 z m -0.10277,2.926517 c 0.0117,-0.01058 0.009,-0.06725 -0.008,-0.125926 -0.0492,-0.182787 -0.0366,-0.542746 0.0256,-0.728684 0.0303,-0.09055 0.0658,-0.175663 0.0789,-0.189146 0.0601,-0.06202 0.0218,-0.0916 -0.11852,-0.0916 -0.13279,0 -0.14573,0.0057 -0.19373,0.08385 -0.12865,0.209793 -0.16405,0.353961 -0.16317,0.664437 3.9e-4,0.163206 0.0137,0.327892 0.0294,0.365967 0.0275,0.06655 0.0344,0.06867 0.17822,0.05478 0.0823,-0.0079 0.15922,-0.02311 0.17089,-0.03369 z m 0.84318,-0.09157 c 0.9494,-0.114178 1.55951,-0.19325 1.59982,-0.207339 0.0212,-0.0074 0.11377,-0.107399 0.20554,-0.222129 l 0.16684,-0.208597 -0.0851,-0.07104 c -0.17383,-0.145127 -0.55229,-0.192499 -0.91947,-0.11509 -0.329,0.06936 -0.56687,0.185615 -0.77802,0.380247 -0.15159,0.139725 -0.18811,0.104575 -0.0973,-0.09367 0.0372,-0.08137 0.0739,-0.215772 0.0814,-0.298663 l 0.0137,-0.150712 -0.21623,-0.01745 c -0.11892,-0.0096 -0.2913,-0.01367 -0.38305,-0.009 -0.15691,0.0078 -0.17031,0.01359 -0.22552,0.09568 -0.0819,0.121942 -0.11351,0.240463 -0.12935,0.486281 -0.0136,0.209586 0.0191,0.42292 0.075,0.490239 0.0147,0.01779 0.0517,0.02687 0.0819,0.02018 0.0303,-0.0066 0.30475,-0.04219 0.60987,-0.07889 z m -9.04444,-0.07879 c 0.0569,-0.195616 0.15625,-0.415682 0.23343,-0.516862 0.035,-0.04591 0.0637,-0.0873 0.0637,-0.09198 0,-0.0047 -0.0903,-0.0085 -0.20047,-0.0085 -0.1709,0 -0.22324,-0.01136 -0.35479,-0.07707 l -0.15433,-0.07707 0.006,-0.158218 c 0.003,-0.08702 0.0579,-0.522453 0.12147,-0.967627 0.0636,-0.445175 0.15677,-1.105502 0.20713,-1.467396 0.0503,-0.361892 0.11557,-0.828756 0.14491,-1.037477 0.0307,-0.218642 0.0442,-0.395791 0.0318,-0.417947 -0.0376,-0.06721 -0.5262,-0.608845 -0.54922,-0.608845 -0.0434,0 -0.18621,0.224311 -0.33686,0.528968 -0.23825,0.481759 -0.50253,1.325512 -0.66922,2.136601 l -0.052,0.252954 0.0936,0.172802 c 0.0515,0.09504 0.18894,0.346975 0.30533,0.559854 0.11642,0.212878 0.22927,0.421884 0.25082,0.464461 0.0853,0.168578 0.18778,0.339915 0.2559,0.427829 0.086,0.111105 0.0916,0.138239 0.11481,0.565447 l 0.0182,0.335072 0.19635,0.06214 c 0.10799,0.03418 0.20424,0.06333 0.21387,0.06478 0.01,0.0014 0.0365,-0.06241 0.0595,-0.141902 z m -0.59113,-0.339285 -0.0179,-0.328994 -0.17806,-0.296738 c -0.0979,-0.163208 -0.18625,-0.319963 -0.1963,-0.348347 -0.0101,-0.02838 -0.0903,-0.179333 -0.17812,-0.335444 -0.088,-0.15611 -0.20641,-0.369357 -0.26329,-0.473882 -0.0568,-0.104523 -0.10994,-0.179498 -0.1179,-0.166609 -0.0638,0.103136 -0.30831,2.106181 -0.2695,2.207298 0.0118,0.03078 0.0395,0.03435 0.13954,0.01796 0.14174,-0.02322 0.74308,-0.0055 0.89893,0.0266 0.2168,0.04457 0.20272,0.06785 0.18261,-0.301841 z m 2.9267,-0.159225 c 0,-0.01307 -0.0237,-0.230782 -0.0527,-0.483814 -0.13961,-1.220473 -0.3884,-2.40532 -0.68503,-3.262445 -0.14825,-0.428344 -0.28766,-0.737435 -0.31802,-0.7051 -0.0124,0.01321 -0.0406,0.145951 -0.0625,0.294967 -0.022,0.149015 -0.0748,0.462525 -0.11728,0.696692 -0.20846,1.147168 -0.2169,1.210432 -0.1873,1.404896 0.0152,0.100107 0.0572,0.437465 0.0934,0.749686 0.0965,0.83232 0.14667,1.237633 0.1542,1.2457 0.004,0.004 0.067,-0.03343 0.14062,-0.08302 0.0737,-0.04958 0.1769,-0.102083 0.22939,-0.116659 0.16038,-0.04454 0.38049,-0.03254 0.50873,0.02774 0.10963,0.05154 0.24469,0.179199 0.24469,0.231294 0,0.01309 0.0116,0.02383 0.0258,0.02383 0.0142,0 0.0258,-0.01068 0.0258,-0.02376 z m -1.35883,-0.614877 c -0.095,-0.843423 -0.14428,-1.197352 -0.16379,-1.175464 -0.0168,0.0187 -0.25973,1.424886 -0.25838,1.494812 2.8e-4,0.01645 0.0614,0.03409 0.14098,0.0407 0.10073,0.0083 0.16459,0.0308 0.22578,0.07939 0.0469,0.03726 0.0916,0.06829 0.0991,0.06896 0.008,6.39e-4 -0.0121,-0.228116 -0.0436,-0.508405 z m -0.71847,0.377937 c 0.0622,-0.01565 0.12988,-0.04759 0.15045,-0.07096 0.0206,-0.02337 0.0686,-0.222472 0.10693,-0.442446 0.0383,-0.219974 0.1093,-0.626378 0.15788,-0.903119 0.23004,-1.310413 0.27275,-1.556983 0.38612,-2.229387 l 0.12137,-0.719888 -0.0614,-0.04747 c -0.10859,-0.084 -0.32596,-0.151383 -0.48163,-0.14931 -0.20952,0.0029 -0.32261,0.04908 -0.34734,0.142145 -0.0175,0.0656 -0.21975,1.479296 -0.52201,3.647379 -0.0572,0.41084 -0.0824,0.665472 -0.0672,0.680691 0.0374,0.0374 0.29005,0.119038 0.3713,0.119983 0.0398,4.32e-4 0.12331,-0.01196 0.18549,-0.02762 z m -3.67989,-3.646696 c 0.24151,-0.152449 0.33721,-0.590105 0.20076,-0.91793 -0.0325,-0.07805 -0.16567,-0.318743 -0.29594,-0.534862 -0.13029,-0.216118 -0.31535,-0.546447 -0.41123,-0.734064 -0.26877,-0.525851 -0.53594,-0.771841 -0.88294,-0.812937 -0.23759,-0.02813 -0.46487,0.147853 -0.53987,0.418041 -0.0474,0.170885 -0.0353,0.544665 0.0247,0.761223 0.0452,0.162975 0.11824,0.293063 0.46967,0.836077 0.40104,0.619675 0.56088,0.837468 0.67259,0.916423 0.23786,0.168127 0.55842,0.196734 0.76231,0.06803 z m 16.89207,-0.513188 c 0.94561,-1.029567 1.47783,-1.613631 1.54446,-1.694911 0.0408,-0.04967 0.21332,-0.240656 0.38355,-0.424408 l 0.30949,-0.334095 -0.0128,-0.159106 c -0.0191,-0.238917 -0.15399,-0.474028 -0.4508,-0.786175 -0.39117,-0.411402 -0.80582,-0.686944 -1.13246,-0.752542 l -0.14123,-0.02836 -0.50853,0.523583 c -0.27968,0.28797 -0.51203,0.537988 -0.5163,0.555595 -0.005,0.0187 0.0759,0.06663 0.19352,0.115277 0.11073,0.04579 0.26517,0.109907 0.34322,0.142476 0.0781,0.03256 0.14565,0.07753 0.1502,0.09993 0.0225,0.110692 -0.50973,0.720006 -0.7921,0.906875 -0.0585,0.03872 -0.10639,0.07876 -0.10639,0.08895 0,0.03202 -0.3452,0.17931 -0.48032,0.204933 -0.25778,0.04889 -0.45503,-0.05038 -0.53459,-0.26905 -0.005,-0.0142 -0.0661,0.03806 -0.13552,0.116114 -0.0693,0.07805 -0.26562,0.284824 -0.43612,0.459484 -0.1705,0.174661 -0.31333,0.332103 -0.3174,0.349871 -0.004,0.01778 0.0134,0.07806 0.0388,0.133996 0.0442,0.09737 0.0517,0.101903 0.17566,0.106781 0.40999,0.01613 1.4183,0.548384 1.80557,0.953083 l 0.18062,0.188754 0.0516,-0.06551 c 0.0284,-0.03603 0.20289,-0.230227 0.38778,-0.431547 z m -13.33737,-0.19389 c -0.0287,-0.179372 0.13836,-0.291163 0.46075,-0.308347 0.16365,-0.0087 0.2345,-2.93e-4 0.3419,0.04077 0.0745,0.02847 0.13547,0.04039 0.13547,0.02649 0,-0.01391 -0.0535,-0.09475 -0.1188,-0.179656 -0.24763,-0.321822 -0.53644,-0.471489 -0.79475,-0.411862 -0.14915,0.03442 -0.32468,0.139928 -0.45285,0.272187 l -0.0891,0.09197 0.11666,0.122354 c 0.0642,0.06729 0.178,0.194923 0.25297,0.283622 0.0749,0.08871 0.14242,0.161271 0.14993,0.161271 0.008,0 0.007,-0.04445 -0.002,-0.09878 z M 182.79089,93.831 c 0.37776,-0.163452 0.71222,-0.248377 0.97817,-0.248377 0.14112,0 0.14699,-0.03978 0.0325,-0.220727 -0.18941,-0.299541 -0.53257,-0.615283 -0.8562,-0.787776 -0.0863,-0.046 -0.19497,-0.109451 -0.24144,-0.140983 -0.2093,-0.142039 -0.72719,-0.185121 -0.87866,-0.07309 -0.29432,0.217684 -0.17395,0.667829 0.31187,1.166248 0.10121,0.103838 0.22173,0.204835 0.26783,0.224438 0.046,0.0196 0.0973,0.06527 0.1138,0.101491 0.0166,0.03621 0.0392,0.06585 0.0504,0.06585 0.0112,0 0.11096,-0.03918 0.22164,-0.08707 z m 2.67187,-1.290172 c 0.0648,-0.0195 0.13342,-0.04845 0.15246,-0.06433 0.0189,-0.01587 0.12241,-0.08637 0.22968,-0.156632 0.20529,-0.134465 0.54813,-0.471548 0.69124,-0.679632 l 0.0847,-0.123254 -0.20168,-0.09224 c -0.23318,-0.106635 -0.43955,-0.190228 -0.46962,-0.190228 -0.0115,0 -0.24981,0.237653 -0.5296,0.528119 l -0.50872,0.528117 0.0519,0.11732 c 0.0299,0.06749 0.0772,0.127434 0.11126,0.141134 0.0881,0.03535 0.255,0.03173 0.38831,-0.0083 z M 174.8658,92.360514 c 0.2418,-0.59435 0.33982,-1.139246 0.31387,-1.745107 -0.0211,-0.493514 -0.12225,-0.85606 -0.30217,-1.083225 -0.0919,-0.116005 -0.25922,-0.19178 -0.37539,-0.169988 -0.29153,0.05469 -0.59804,0.453653 -0.78545,1.022353 -0.0729,0.221485 -0.18149,0.688436 -0.18149,0.781081 0,0.02152 0.0838,0.0948 0.1861,0.162838 0.10235,0.06805 0.26643,0.1995 0.36462,0.292122 0.19292,0.181993 0.53163,0.617078 0.61875,0.794807 0.0297,0.06052 0.0644,0.106558 0.0771,0.102303 0.0128,-0.0043 0.0505,-0.07499 0.084,-0.157184 z"
       id="path8807" />
  </g>
</svg>
