<?xml version="1.0" encoding="UTF-8" standalone="no"?>

<svg
   width="25.4mm"
   height="25.4mm"
   viewBox="0 0 25.4 25.4"
   version="1.1"
   id="svg5"
   xmlns="http://www.w3.org/2000/svg">
   <g
      id="layer1"
      transform="translate(-166.57399,-87.67691)">
      <path
         id="path1052"
         style="fill:#ffffff;stroke-width:0.96;fill-opacity:1"
         d="M 18.240234 20.160156 C 14.517362 20.160156 11.519531 23.157979 11.519531 26.880859 L 11.519531 67.199219 C 11.519531 70.922091 14.517362 73.919922 18.240234 73.919922 L 34.560547 73.919922 L 34.560547 80.640625 L 61.439453 80.640625 L 61.439453 73.919922 L 77.759766 73.919922 C 81.482638 73.919922 84.480469 70.922091 84.480469 67.199219 L 84.480469 26.880859 C 84.480469 23.157979 81.482638 20.160156 77.759766 20.160156 L 18.240234 20.160156 z M 18.240234 26.880859 L 77.759766 26.880859 L 77.759766 67.199219 L 18.240234 67.199219 L 18.240234 26.880859 z M 38.160156 32.939453 L 38.208984 60.320312 L 60.960938 47.037109 L 38.160156 32.939453 z "
         transform="matrix(0.26458333,0,0,0.26458333,166.57399,87.67691)" />
   </g>
</svg>
