<?xml version="1.0" encoding="UTF-8" standalone="no"?>

<svg
   width="35.449589mm"
   height="33.275143mm"
   viewBox="0 0 35.449589 33.275143"
   version="1.1"
   id="svg6389"
   xmlns="http://www.w3.org/2000/svg">
  <g
     id="layer2"
     transform="translate(-150.91578,2040.9705)">
    <path
       id="path68002"
       style="fill:#5ca4f9;fill-opacity:1;stroke:none;stroke-width:20.4604;stroke-linecap:round"
       d="m 652.87305,-7713.9043 v 0.041 51.459 l 44.49804,25.6895 a 51.498867,51.498867 0 0 0 7.00196,-25.6895 51.498867,51.498867 0 0 0 -51.5,-51.5 z m 43.58984,78.8496 a 51.498867,51.498867 0 0 1 -0.51953,0.8281 51.498867,51.498867 0 0 0 0.51953,-0.8281 z m -4.3457,5.9492 a 51.498867,51.498867 0 0 1 -0.67188,0.7793 51.498867,51.498867 0 0 0 0.67188,-0.7793 z m -5.16602,5.2793 a 51.498867,51.498867 0 0 1 -0.79297,0.6836 51.498867,51.498867 0 0 0 0.79297,-0.6836 z"
       transform="scale(0.26458333)" />
    <path
       id="path68085"
       style="fill:#fdbf49;fill-opacity:1;stroke:none;stroke-width:6.61458;stroke-linecap:round"
       d="m 181.97312,-2016.0199 -14.41856,-8.3246 -14.38555,8.3056 a 16.64895,16.64895 0 0 0 6.061,6.1129 16.64895,16.64895 0 0 0 22.74311,-6.0939 z m 0.99667,-2.0519 a 16.64895,16.64895 0 0 0 0.0527,-0.1212 16.64895,16.64895 0 0 1 -0.0527,0.1212 z m 0.72042,-2.209 a 16.64895,16.64895 0 0 0 0.0561,-0.2099 16.64895,16.64895 0 0 1 -0.0561,0.2099 z m 0.41017,-2.3165 a 16.64895,16.64895 0 0 0 0.0302,-0.2684 16.64895,16.64895 0 0 1 -0.0302,0.2684 z m 0.0802,-2.3704 a 16.64895,16.64895 0 0 0 -0.011,-0.2951 16.64895,16.64895 0 0 1 0.011,0.2951 z m -0.25831,-2.3617 a 16.64895,16.64895 0 0 0 -0.0586,-0.3119 16.64895,16.64895 0 0 1 0.0586,0.3119 z m -0.59662,-2.3184 a 16.64895,16.64895 0 0 0 -0.1016,-0.2901 16.64895,16.64895 0 0 1 0.1016,0.2901 z m -0.92337,-2.2092 a 16.64895,16.64895 0 0 0 -0.13759,-0.2609 16.64895,16.64895 0 0 1 0.13759,0.2609 z m -1.23444,-2.0601 a 16.64895,16.64895 0 0 0 -0.15436,-0.209 16.64895,16.64895 0 0 1 0.15436,0.209 z m -1.51773,-1.8608 a 16.64895,16.64895 0 0 0 -0.15354,-0.1537 16.64895,16.64895 0 0 1 0.15354,0.1537 z m -1.77575,-1.6279 a 16.64895,16.64895 0 0 0 -0.10618,-0.079 16.64895,16.64895 0 0 1 0.10618,0.079 z m -4.04714,-2.3539 a 16.64895,16.64895 0 0 0 -0.12117,-0.053 16.64895,16.64895 0 0 1 0.12117,0.053 z m -2.21103,-0.721 a 16.64895,16.64895 0 0 0 -0.20667,-0.055 16.64895,16.64895 0 0 1 0.20667,0.055 z m -2.31998,-0.4104 a 16.64895,16.64895 0 0 0 -0.25823,-0.029 16.64895,16.64895 0 0 1 0.25823,0.029 z m -16.44546,24.3296 a 16.64895,16.64895 0 0 1 -0.1474,-0.279 16.64895,16.64895 0 0 0 0.1474,0.279 z m 14.08062,-24.409 a 16.64895,16.64895 0 0 0 -0.29469,0.011 16.64895,16.64895 0 0 1 0.29469,-0.011 z m -15.04156,22.2317 a 16.64895,16.64895 0 0 1 -0.10987,-0.314 16.64895,16.64895 0 0 0 0.10987,0.314 z m 12.67401,-21.9726 a 16.64895,16.64895 0 0 0 -0.30209,0.057 16.64895,16.64895 0 0 1 0.30209,-0.057 z m -13.31576,19.6736 a 16.64895,16.64895 0 0 1 -0.063,-0.3323 16.64895,16.64895 0 0 0 0.063,0.3323 z m 11.00702,-19.0792 a 16.64895,16.64895 0 0 0 -0.29943,0.1052 16.64895,16.64895 0 0 1 0.29943,-0.1052 z m -11.31454,16.6962 a 16.64895,16.64895 0 0 1 -0.0116,-0.3075 16.64895,16.64895 0 0 0 0.0116,0.3075 z m 9.10176,-15.7719 a 16.64895,16.64895 0 0 0 -0.26112,0.138 16.64895,16.64895 0 0 1 0.26112,-0.138 z m -9.06381,13.3694 a 16.64895,16.64895 0 0 1 0.0306,-0.27 16.64895,16.64895 0 0 0 -0.0306,0.27 z m 7.00346,-12.1345 a 16.64895,16.64895 0 0 0 -0.20907,0.1544 16.64895,16.64895 0 0 1 0.20907,-0.1544 z m -6.62018,9.7643 a 16.64895,16.64895 0 0 1 0.0594,-0.2217 16.64895,16.64895 0 0 0 -0.0594,0.2217 z m 4.75934,-8.2466 a 16.64895,16.64895 0 0 0 -0.15367,0.1536 16.64895,16.64895 0 0 1 0.15367,-0.1536 z m -1.62789,1.7758 a 16.64895,16.64895 0 0 0 -0.0786,0.1062 16.64895,16.64895 0 0 1 0.0786,-0.1062 z m -2.40658,4.1683 a 16.64895,16.64895 0 0 1 0.0527,-0.1212 16.64895,16.64895 0 0 0 -0.0527,0.1212 z" />
    <path
       id="path68123"
       style="fill:#e91cb7;fill-opacity:1;stroke:none;stroke-width:25;stroke-linecap:round"
       d="m 633.31641,-7713.7832 a 62.925165,62.925165 0 0 0 -31.46289,8.2871 62.925165,62.925165 0 0 0 -23.03321,85.957 L 633.31641,-7651 Z m -49.66211,101.3848 a 62.925165,62.925165 0 0 0 0.29687,0.4023 62.925165,62.925165 0 0 1 -0.29687,-0.4023 z m 5.86718,6.5332 a 62.925165,62.925165 0 0 0 0.58204,0.58 62.925165,62.925165 0 0 1 -0.58204,-0.58 z m 6.8086,5.7207 a 62.925165,62.925165 0 0 0 0.82031,0.6054 62.925165,62.925165 0 0 1 -0.82031,-0.6054 z m 7.60742,4.7402 a 62.925165,62.925165 0 0 0 0.98633,0.5234 62.925165,62.925165 0 0 1 -0.98633,-0.5234 z m 8.2168,3.6191 a 62.925165,62.925165 0 0 0 1.13281,0.3965 62.925165,62.925165 0 0 1 -1.13281,-0.3965 z m 8.71679,2.4278 a 62.925165,62.925165 0 0 0 1.14063,0.2148 62.925165,62.925165 0 0 1 -1.14063,-0.2148 z m 8.97657,1.1523 a 62.925165,62.925165 0 0 0 1.11328,0.041 62.925165,62.925165 0 0 1 -1.11328,-0.041 z"
       transform="scale(0.26458333)" />
  </g>
</svg>
