<?xml version="1.0" encoding="UTF-8" standalone="no"?>

<svg
   width="25.4mm"
   height="25.4mm"
   viewBox="0 0 25.4 25.4"
   version="1.1"
   id="svg5"
   xmlns="http://www.w3.org/2000/svg">
   <g
      id="layer1"
      transform="translate(-166.57399,-87.67691)">
      <path
         id="rect3646"
         style="fill:#ffffff;fill-opacity:1;stroke-width:25;stroke-linecap:round"
         d="M 29.759766 20.160156 C 18.239766 20.160156 11.519531 24.882813 11.519531 24.882812 L 11.519531 76.5 C 11.519531 76.5 18.239766 71.777344 29.759766 71.777344 C 41.957661 71.777344 48 76.5 48 76.5 C 48 76.5 54.042339 71.777344 66.240234 71.777344 C 77.760234 71.777344 84.480469 76.5 84.480469 76.5 L 84.480469 24.882812 C 84.480469 24.882812 77.760234 20.160156 66.240234 20.160156 C 54.042339 20.160156 48 24.882813 48 24.882812 C 48 24.882812 41.957661 20.160156 29.759766 20.160156 z M 66.240234 26.880859 C 70.912325 26.880859 74.794732 27.658908 77.759766 28.582031 L 77.759766 66.759766 C 74.794732 65.836642 70.912325 65.058594 66.240234 65.058594 C 54.042341 65.058594 48 69.779297 48 69.779297 L 48 31.601562 C 48 31.601562 54.042341 26.880859 66.240234 26.880859 z M 66.240234 34.785156 C 60.038748 34.785156 55.432678 36.005396 52.398438 37.205078 L 52.398438 42.773438 C 55.432678 41.573755 60.038748 40.353516 66.240234 40.353516 C 69.640827 40.353516 72.620095 40.767359 75.134766 41.347656 L 75.134766 35.779297 C 72.620095 35.199 69.640827 34.785156 66.240234 34.785156 z M 66.240234 43.761719 C 60.038748 43.761719 55.432679 44.981958 52.398438 46.181641 L 52.398438 51.75 C 55.432679 50.55034 60.038748 49.330078 66.240234 49.330078 C 69.640827 49.330078 72.620095 49.743948 75.134766 50.324219 L 75.134766 44.755859 C 72.620095 44.175562 69.640827 43.761719 66.240234 43.761719 z M 66.240234 52.738281 C 60.038748 52.738281 55.432679 53.958543 52.398438 55.158203 L 52.398438 60.726562 C 55.432679 59.526904 60.038748 58.306641 66.240234 58.306641 C 69.640827 58.306641 72.620095 58.72051 75.134766 59.300781 L 75.134766 53.732422 C 72.620095 53.152151 69.640827 52.738281 66.240234 52.738281 z "
         transform="matrix(0.26458333,0,0,0.26458333,166.57399,87.67691)" />
   </g>
</svg>
