<?xml version="1.0" encoding="UTF-8" standalone="no"?>

<svg
   width="25.4mm"
   height="25.4mm"
   viewBox="0 0 25.4 25.4"
   version="1.1"
   id="svg5"
   xmlns="http://www.w3.org/2000/svg">
   <g
      id="layer1"
      transform="translate(-166.57399,-87.67691)">
      <path
         id="path8068"
         style="fill:#ffffff;fill-opacity:1;stroke:none;stroke-width:25;stroke-linecap:round"
         d="M 48 11.519531 A 36.479986 36.479997 0 0 0 43.410156 11.820312 A 36.479998 36.479987 0 0 0 43.171875 11.845703 A 36.479986 36.479997 0 0 0 38.863281 12.701172 A 36.479998 36.479987 0 0 0 38.416016 12.810547 A 36.479986 36.479997 0 0 0 34.337891 14.195312 A 36.479998 36.479987 0 0 0 33.873047 14.378906 A 36.479986 36.479997 0 0 0 30.078125 16.248047 A 36.479998 36.479987 0 0 0 29.552734 16.544922 A 36.479986 36.479997 0 0 0 26.082031 18.863281 A 36.479998 36.479987 0 0 0 25.576172 19.248047 A 36.479986 36.479997 0 0 0 22.427734 22.009766 A 36.479998 36.479987 0 0 0 22.009766 22.427734 A 36.479986 36.479997 0 0 0 19.248047 25.576172 A 36.479998 36.479987 0 0 0 18.863281 26.082031 A 36.479986 36.479997 0 0 0 16.544922 29.552734 A 36.479998 36.479987 0 0 0 16.248047 30.078125 A 36.479986 36.479997 0 0 0 14.378906 33.873047 A 36.479998 36.479987 0 0 0 14.195312 34.337891 A 36.479986 36.479997 0 0 0 12.810547 38.416016 A 36.479998 36.479987 0 0 0 12.701172 38.863281 A 36.479986 36.479997 0 0 0 11.845703 43.171875 A 36.479998 36.479987 0 0 0 11.820312 43.410156 A 36.479986 36.479997 0 0 0 11.519531 48 A 36.479986 36.479997 0 0 0 11.820312 52.589844 A 36.479998 36.479987 0 0 0 11.845703 52.828125 A 36.479986 36.479997 0 0 0 12.701172 57.136719 A 36.479998 36.479987 0 0 0 12.810547 57.583984 A 36.479986 36.479997 0 0 0 14.195312 61.662109 A 36.479998 36.479987 0 0 0 14.378906 62.126953 A 36.479986 36.479997 0 0 0 16.248047 65.921875 A 36.479998 36.479987 0 0 0 16.544922 66.447266 A 36.479986 36.479997 0 0 0 18.863281 69.917969 A 36.479998 36.479987 0 0 0 19.248047 70.423828 A 36.479986 36.479997 0 0 0 22.009766 73.572266 A 36.479998 36.479987 0 0 0 22.427734 73.990234 A 36.479986 36.479997 0 0 0 25.576172 76.751953 A 36.479998 36.479987 0 0 0 26.082031 77.136719 A 36.479986 36.479997 0 0 0 29.552734 79.455078 A 36.479998 36.479987 0 0 0 30.078125 79.751953 A 36.479986 36.479997 0 0 0 33.873047 81.621094 A 36.479998 36.479987 0 0 0 34.337891 81.804688 A 36.479986 36.479997 0 0 0 38.416016 83.189453 A 36.479998 36.479987 0 0 0 38.863281 83.298828 A 36.479986 36.479997 0 0 0 43.171875 84.154297 A 36.479998 36.479987 0 0 0 43.410156 84.179688 A 36.479986 36.479997 0 0 0 48 84.480469 A 36.479997 36.479986 0 0 0 84.480469 48 A 36.479986 36.479997 0 0 0 48 11.519531 z M 48 18.240234 A 13.662109 29.759973 0 0 1 59.542969 32.119141 A 36.479986 16.747115 0 0 0 48 31.251953 A 36.479986 16.747115 0 0 0 36.453125 32.119141 A 13.662109 29.759973 0 0 1 48 18.240234 z M 37.052734 20.402344 A 16.747115 36.479986 0 0 0 32.814453 32.783203 A 36.479986 16.747115 0 0 0 20.402344 37.052734 A 29.759973 29.759973 0 0 1 21.068359 35.535156 A 29.759973 29.759973 0 0 1 21.886719 33.908203 A 29.759973 29.759973 0 0 1 22.839844 32.263672 A 29.759973 29.759973 0 0 1 24.203125 30.263672 A 29.759973 29.759973 0 0 1 24.753906 29.519531 A 29.759973 29.759973 0 0 1 26.982422 27.035156 A 29.759973 29.759973 0 0 1 27.382812 26.636719 A 29.759973 29.759973 0 0 1 30.15625 24.261719 A 29.759973 29.759973 0 0 1 30.238281 24.203125 A 29.759973 29.759973 0 0 1 37.052734 20.402344 z M 58.947266 20.402344 A 29.759973 29.759973 0 0 1 68.238281 26.257812 A 29.759973 29.759973 0 0 1 68.992188 27.007812 A 29.759973 29.759973 0 0 1 69.742188 27.761719 A 29.759973 29.759973 0 0 1 75.597656 37.052734 A 36.479986 16.747115 0 0 0 63.210938 32.789062 A 16.747115 36.479986 0 0 0 58.947266 20.402344 z M 48 34.337891 A 29.759973 13.662109 0 0 1 60.408203 35.582031 A 13.662109 29.759973 0 0 1 61.662109 48 A 13.662109 29.759973 0 0 1 60.408203 60.417969 A 29.759973 13.662109 0 0 1 48 61.662109 A 29.759973 13.662109 0 0 1 35.583984 60.408203 A 13.662109 29.759973 0 0 1 34.337891 48 A 13.662109 29.759973 0 0 1 35.583984 35.591797 A 29.759973 13.662109 0 0 1 48 34.337891 z M 63.878906 36.447266 A 29.759973 13.662109 0 0 1 77.742188 47.566406 A 29.759973 29.759973 0 0 1 77.759766 48 A 29.759973 29.759973 0 0 1 77.742188 48.433594 A 29.759973 13.662109 0 0 1 63.878906 59.552734 A 16.747115 36.479986 0 0 0 64.748047 48 A 16.747115 36.479986 0 0 0 63.878906 36.447266 z M 32.146484 36.449219 A 16.747115 36.479986 0 0 0 31.251953 48 A 16.747115 36.479986 0 0 0 32.146484 59.550781 A 29.759973 13.662109 0 0 1 18.240234 48 A 29.759973 13.662109 0 0 1 32.146484 36.449219 z M 20.402344 58.947266 A 36.479986 16.747115 0 0 0 32.814453 63.216797 A 16.747115 36.479986 0 0 0 37.052734 75.597656 A 29.759973 29.759973 0 0 1 30.238281 71.796875 A 29.759973 29.759973 0 0 1 30.15625 71.738281 A 29.759973 29.759973 0 0 1 27.382812 69.363281 A 29.759973 29.759973 0 0 1 26.982422 68.964844 A 29.759973 29.759973 0 0 1 24.753906 66.480469 A 29.759973 29.759973 0 0 1 24.203125 65.736328 A 29.759973 29.759973 0 0 1 22.839844 63.736328 A 29.759973 29.759973 0 0 1 21.886719 62.091797 A 29.759973 29.759973 0 0 1 21.068359 60.464844 A 29.759973 29.759973 0 0 1 20.402344 58.947266 z M 75.597656 58.947266 A 29.759973 29.759973 0 0 1 69.742188 68.238281 A 29.759973 29.759973 0 0 1 68.992188 68.992188 A 29.759973 29.759973 0 0 1 68.238281 69.742188 A 29.759973 29.759973 0 0 1 58.947266 75.597656 A 16.747115 36.479986 0 0 0 63.210938 63.210938 A 36.479986 16.747115 0 0 0 75.597656 58.947266 z M 36.453125 63.880859 A 36.479986 16.747115 0 0 0 48 64.748047 A 36.479986 16.747115 0 0 0 59.542969 63.880859 A 13.662109 29.759973 0 0 1 48 77.759766 A 13.662109 29.759973 0 0 1 36.453125 63.880859 z "
         transform="matrix(0.26458333,0,0,0.26458333,166.57399,87.67691)" />
   </g>
</svg>
