<?xml version="1.0" encoding="UTF-8" standalone="no"?>
<!-- Created with Inkscape (http://www.inkscape.org/) -->

<svg
   width="89.958336mm"
   height="26.458334mm"
   viewBox="0 0 89.958336 26.458334"
   version="1.1"
   id="svg5"
   xml:space="preserve"
   inkscape:version="1.2.1 (9c6d41e, 2022-07-14)"
   sodipodi:docname="divider-1.svg"
   xmlns:inkscape="http://www.inkscape.org/namespaces/inkscape"
   xmlns:sodipodi="http://sodipodi.sourceforge.net/DTD/sodipodi-0.dtd"
   xmlns="http://www.w3.org/2000/svg"
   xmlns:svg="http://www.w3.org/2000/svg"><sodipodi:namedview
     id="namedview7"
     pagecolor="#ffffff"
     bordercolor="#000000"
     borderopacity="0.25"
     inkscape:showpageshadow="2"
     inkscape:pageopacity="0.0"
     inkscape:pagecheckerboard="0"
     inkscape:deskcolor="#d1d1d1"
     inkscape:document-units="mm"
     showgrid="false"
     inkscape:zoom="1.5216822"
     inkscape:cx="170.53495"
     inkscape:cy="107.77546"
     inkscape:window-width="1370"
     inkscape:window-height="816"
     inkscape:window-x="0"
     inkscape:window-y="38"
     inkscape:window-maximized="0"
     inkscape:current-layer="layer1" /><defs
     id="defs2" /><g
     inkscape:label="Layer 1"
     inkscape:groupmode="layer"
     id="layer1"
     transform="translate(-48.147949,-136.52931)"><path
       style="fill:#000000;stroke-width:0.105833"
       d="m 61.857245,160.98309 c -0.03384,-0.0548 0.03159,-0.59054 0.145407,-1.19063 0.113817,-0.60009 0.285992,-1.51969 0.382611,-2.04357 0.609065,-3.30236 2.352976,-5.10603 5.949667,-6.15353 0.847475,-0.24682 2.509725,-0.97712 2.422524,-1.06432 -0.0238,-0.0238 -1.06065,0.12973 -2.304101,0.34118 -1.324103,0.22517 -2.896638,0.41887 -3.795404,0.4675 -1.56732,0.0848 -1.67554,0.10991 -3.227916,0.74902 -0.716198,0.29485 -1.015536,0.35639 -1.942525,0.39935 -1.203855,0.0558 -1.948574,-0.065 -2.846392,-0.46164 -1.044033,-0.46125 -2.377652,-1.48466 -3.77201,-2.89463 -1.216317,-1.22994 -1.34837,-1.39868 -1.217732,-1.55609 0.157372,-0.18962 0.444495,-0.18635 5.280742,0.0602 3.151071,0.16063 3.996984,0.48088 5.589188,2.11599 l 0.985438,1.01199 1.078312,0.0351 c 0.790229,0.0257 1.544844,-0.039 2.824562,-0.24232 1.909907,-0.30339 5.610763,-1.08703 5.748369,-1.2172 0.149827,-0.14172 -0.747228,-0.42545 -2.025512,-0.64064 -2.60421,-0.4384 -4.025,-1.15024 -5.279971,-2.64536 -1.211376,-1.44317 -1.725638,-2.74419 -1.955969,-4.94834 -0.140324,-1.34283 -0.07341,-1.57938 0.367183,-1.29804 0.232972,0.14876 1.040163,0.628 2.656627,1.57727 1.064059,0.62487 2.674306,2.14169 3.322221,3.12945 0.298111,0.45448 0.672139,1.24745 0.924136,1.95926 0.501547,1.41671 0.895417,1.93468 1.693333,2.22687 0.291042,0.10657 0.683803,0.25586 0.872802,0.33175 0.308479,0.12386 0.508791,0.0974 1.957917,-0.2584 2.192857,-0.53845 4.119956,-0.89873 5.610854,-1.04897 0.684697,-0.069 1.18476,-0.15714 1.11125,-0.19586 -0.07351,-0.0387 -0.643294,-0.10184 -1.266185,-0.14027 -2.067307,-0.12752 -3.476005,-0.63195 -4.877223,-1.74642 -1.571161,-1.24965 -2.414719,-2.47863 -3.037707,-4.42563 -0.708621,-2.21463 -0.673443,-2.44262 0.287504,-1.8633 0.635114,0.38289 0.838138,0.47273 2.467154,1.09174 1.757676,0.6679 2.490799,1.04845 3.271508,1.69816 0.94268,0.78451 1.526236,1.5756 2.233613,3.02797 0.663309,1.3619 0.915083,1.65579 1.804665,2.10658 0.438866,0.22239 0.657092,0.25872 1.554033,0.25872 1.987661,0 4.295662,0.30966 7.186252,0.96417 l 1.396437,0.31619 1.712162,-0.38237 c 2.42184,-0.54086 4.229431,-0.7929 6.184131,-0.86226 2.51825,-0.0894 3.06048,-0.37699 3.83927,-2.03656 0.65796,-1.40209 1.27067,-2.29702 2.12337,-3.10142 0.9335,-0.88061 1.53344,-1.2167 3.52394,-1.97414 1.68325,-0.64052 2.67356,-1.09591 2.78884,-1.28243 0.0926,-0.14978 0.45068,-0.13539 0.50254,0.0202 0.0989,0.29664 -0.55677,2.52893 -1.00373,3.41738 -0.47313,0.94048 -0.86503,1.46986 -1.69154,2.28497 -0.9376,0.92467 -2.00696,1.63851 -2.94134,1.96346 -0.82198,0.28586 -2.50251,0.56543 -3.40448,0.56636 -0.33126,3.2e-4 -0.63173,0.0482 -0.6677,0.10646 -0.0397,0.0642 0.11397,0.10659 0.39063,0.10777 1.05243,0.004 4.84742,0.68596 6.84681,1.22951 1.09968,0.29896 1.24315,0.29147 2.23464,-0.11662 0.90932,-0.37427 1.27098,-0.77397 1.63515,-1.80716 0.67579,-1.91732 1.17412,-2.72354 2.5067,-4.05552 0.76938,-0.76903 1.61671,-1.39309 2.6844,-1.97705 0.40746,-0.22285 1.0393,-0.59164 1.4041,-0.81952 0.92946,-0.58062 1.01471,-0.52158 0.92277,0.63911 -0.17947,2.26553 -0.6955,3.66341 -1.93457,5.24054 -0.5244,0.66749 -1.46258,1.42735 -2.2632,1.83306 -0.61344,0.31085 -2.05748,0.73443 -2.83868,0.83266 -0.73458,0.0924 -2.2069,0.47568 -2.27972,0.5935 -0.18883,0.30555 6.67342,1.57798 8.51906,1.57965 l 1.00059,9.5e-4 0.92159,-0.942 c 1.83354,-1.87412 2.56092,-2.11262 7.13139,-2.33833 3.12562,-0.15435 3.80576,-0.14399 3.97551,0.0606 0.12009,0.1447 -0.0506,0.3527 -1.2835,1.56401 -2.67655,2.62969 -4.26762,3.44054 -6.52358,3.32458 -1.04338,-0.0536 -1.39323,-0.14795 -2.88884,-0.77877 -0.59566,-0.25124 -0.89374,-0.30071 -2.2225,-0.36885 -1.33353,-0.0684 -5.65106,-0.69896 -6.18276,-0.90299 -0.092,-0.0353 -0.16724,-0.0358 -0.16724,-0.001 0,0.14748 1.74608,0.92369 2.6487,1.17748 2.13552,0.60042 3.55093,1.50223 4.6122,2.93857 0.64532,0.8734 1.06684,2.05906 1.3625,3.83244 0.13875,0.83227 0.30359,1.70377 0.3663,1.93666 0.12058,0.44778 0.0636,0.76393 -0.13748,0.76311 -0.0665,-3.1e-4 -0.48746,-0.29792 -0.93539,-0.66146 -0.4703,-0.38167 -1.45332,-0.99636 -2.32644,-1.45471 -2.89527,-1.51992 -3.53824,-2.2742 -4.62488,-5.42559 -0.55213,-1.60124 -0.73769,-1.94551 -1.36477,-2.53207 -0.77862,-0.72831 -1.46021,-1.02185 -3.56949,-1.53732 -4.02551,-0.98374 -7.01724,-1.40745 -9.89542,-1.40144 -0.98699,0.002 -1.08888,0.0192 -0.91116,0.15379 0.11005,0.0833 0.56249,0.22621 1.00542,0.31754 2.42931,0.50095 3.40823,0.87997 4.29995,1.6649 1.11857,0.98461 1.73676,2.35557 2.3772,5.27197 0.23097,1.05178 0.44715,1.95636 0.48041,2.01017 0.0333,0.0538 0.007,0.19825 -0.0589,0.32098 -0.16765,0.31326 -0.44889,0.21934 -1.67458,-0.5592 -2.97461,-1.88943 -4.96011,-4.22733 -5.5082,-6.48582 -0.2985,-1.23001 -0.36235,-1.39221 -0.67813,-1.7226 -0.2363,-0.24723 -0.57101,-0.42246 -1.16602,-0.61042 l -0.834569,-0.26364 -1.28506,0.20967 c -1.758843,0.28698 -3.378118,0.62772 -3.483398,0.733 -0.04803,0.048 0.284075,0.22121 0.738007,0.38485 1.14283,0.41199 3.083598,1.33311 3.694735,1.75358 0.711935,0.48983 1.311015,1.04787 1.311015,1.22121 0,0.25048 -0.24106,0.1587 -0.899586,-0.34249 -0.34925,-0.2658 -1.2065,-0.76072 -1.905,-1.09981 -1.326416,-0.64392 -3.809863,-1.58626 -4.180417,-1.58626 -0.352172,0 -2.820737,0.92567 -4.11548,1.54324 -0.662785,0.31614 -1.52586,0.81261 -1.917945,1.10328 -0.392085,0.29066 -0.766588,0.52848 -0.832228,0.52848 -0.399059,0 0.234374,-0.73227 1.187797,-1.37312 0.655505,-0.44061 2.630242,-1.37685 3.698974,-1.75373 0.454136,-0.16014 0.785891,-0.33098 0.737233,-0.37964 -0.108098,-0.10809 -2.225031,-0.54521 -3.714452,-0.76699 -1.084488,-0.16147 -1.099668,-0.16072 -1.907969,0.0946 -1.160169,0.3665 -1.434221,0.67753 -1.761491,1.99919 -0.139944,0.56516 -0.371342,1.2829 -0.514215,1.59498 -0.827698,1.80793 -2.676651,3.71712 -5.056846,5.22159 -1.691715,1.0693 -1.920295,1.00879 -1.582487,-0.41893 0.115068,-0.48632 0.357974,-1.52716 0.53979,-2.31297 0.384093,-1.66006 1.00096,-3.05257 1.707857,-3.8553 0.879745,-0.99901 2.276502,-1.67369 4.076158,-1.96891 0.935084,-0.1534 1.72947,-0.40631 1.72947,-0.55062 0,-0.13322 -3.405451,-0.0331 -4.796783,0.14102 -1.386575,0.17352 -3.590773,0.59696 -5.416134,1.04048 -0.931333,0.22629 -1.86002,0.44552 -2.06375,0.48718 -0.577058,0.118 -1.557836,0.65278 -2.080107,1.13419 -0.637807,0.58791 -0.917262,1.09515 -1.422428,2.58184 -0.599823,1.76526 -1.17276,2.88236 -1.824074,3.55655 -0.682525,0.70649 -1.167366,1.03493 -2.769641,1.87616 -1.400581,0.73534 -1.923881,1.0709 -2.649528,1.69894 -0.483633,0.41858 -0.722195,0.50972 -0.839093,0.32058 z"
       id="path302" /></g></svg>
